<?xml version="1.0" encoding="iso-8859-1"?>
<!-- Generator: Adobe Illustrator 19.0.0, SVG Export Plug-In . SVG Version: 6.00 Build 0)  -->
<svg version="1.1" id="Layer_1" xmlns="http://www.w3.org/2000/svg" xmlns:xlink="http://www.w3.org/1999/xlink" x="0px" y="0px"
	 viewBox="0 0 397.225 397.225" style="enable-background:new 0 0 397.225 397.225;" xml:space="preserve">
<g>
	<path style="fill:#C7E9F4;" d="M201.424,256.332c6.663-2.654,11.814-7.998,17.588-12.254c5.774-4.255,13.196-7.567,19.994-5.281
		c7.88,2.65,11.538,11.398,15.257,18.834c21.562,43.115,60.467,29.983,71.04-1.802c3.42-10.281,3.842-21.117,3.104-31.997
		l-58.628-73.207c-9.566-11.944-27.737-11.944-37.302,0l-69.108,86.294c0.35,0.933,0.732,1.857,1.161,2.765
		C170.886,253.12,187.616,261.832,201.424,256.332z"/>
	<g>
		<path style="fill:#C7E9F4;" d="M59.342,288.131c6.933-2.762,13.532-13.044,21.915-10.225c4.595,1.545,6.728,6.647,8.897,10.983
			c12.573,25.142,35.259,17.484,41.425-1.051c1.994-5.995,2.24-12.314,1.81-18.658l-34.187-42.689
			c-5.578-6.965-16.174-6.965-21.752,0l-40.299,50.32C40.74,286.387,51.366,291.309,59.342,288.131z"/>
		<path style="fill:#51B3DA;" d="M166.055,309.969l-32.666-40.789c0.43,6.344,0.184,12.663-1.81,18.658
			c-6.077,18.268-28.719,26.457-41.425,1.051c-2.169-4.336-4.302-9.437-8.897-10.983c-8.37-2.815-15.004,7.472-21.915,10.225
			c-7.992,3.183-18.609-1.762-22.191-11.32l-26.555,33.158c-7.305,9.122-0.811,22.644,10.876,22.644h133.707
			C166.866,332.612,173.36,319.091,166.055,309.969z"/>
	</g>
	<path style="fill:#51B3DA;" d="M384.426,293.781l-56.019-69.95c0.738,10.88,0.316,21.716-3.104,31.997
		c-10.49,31.534-49.35,45.172-71.04,1.802c-3.719-7.436-7.377-16.184-15.257-18.834c-6.798-2.286-14.22,1.026-19.994,5.281
		c-5.774,4.255-10.925,9.6-17.588,12.254c-13.809,5.5-30.538-3.212-36.895-16.648c-0.43-0.908-0.811-1.832-1.161-2.765
		l-27.908,34.848l30.594,38.203c7.305,9.122,0.811,22.644-10.876,22.644h210.596C385.816,332.612,396.954,309.424,384.426,293.781z"
		/>
	<g>
		<polygon style="fill:#FFDA79;" points="304.586,102.112 328.715,77.983 251.128,77.983 251.128,126.242 328.715,126.242 		"/>
		<path style="fill:#13829B;" d="M390.28,289.093l-56.019-69.95l-58.628-73.207c-4.389-5.48-10.359-9.238-17.005-10.861v-1.332
			h70.087c6.656,0,10.025-8.081,5.303-12.804l-18.826-18.826l18.826-18.826c4.705-4.706,1.375-12.804-5.303-12.804h-70.087v-5.87
			c0-4.143-3.358-7.5-7.5-7.5c-4.142,0-7.5,3.357-7.5,7.5c0,7.994,0,62.323,0,70.462c-6.646,1.623-12.617,5.381-17.005,10.861
			c-2.669,3.333-85.317,106.533-91.163,113.832l-30.405-37.966c-8.589-10.726-24.888-10.703-33.459,0
			c-6.458,8.063-58.416,72.943-66.854,83.478c-11.239,14.036-1.236,34.832,16.73,34.832c5.331,0,333.156,0,344.302,0
			C392.111,340.112,406.73,309.632,390.28,289.093z M310.609,85.482l-11.326,11.326c-2.929,2.93-2.929,7.678,0,10.607l11.326,11.326
			h-51.981v-33.26H310.609z M238.331,155.313c6.569-8.202,19.036-8.189,25.594,0l57.135,71.343
			c2.584,50.747-38.813,70.161-60.089,27.621c-3.982-7.965-8.567-18.888-19.575-22.588c-17.734-5.966-30.973,11.132-40.039,16.348
			c-10.623,6.113-23.671-0.182-29.249-10.034L238.331,155.313z M83.304,231.179c2.577-3.219,7.471-3.213,10.043,0l32.678,40.804
			c0.879,24.227-18.042,35.795-29.163,13.552c-2.528-5.114-5.641-12.191-13.214-14.736c-13.594-4.57-22.311,9.389-28.007,10.639
			c-3.347,0.732-7.184-1.185-9.491-3.864L83.304,231.179z M16.451,314.657l20.252-25.289c20.908,19.697,37.058-6.105,42.164-4.353
			c1.376,0.462,3.307,4.654,4.579,7.228c15.929,31.852,48.292,22.435,55.785-3.771l20.97,26.185
			c3.381,4.222,0.384,10.455-5.022,10.455H21.473C16.063,325.112,13.071,318.876,16.451,314.657z M365.775,325.112H175.631
			c4.477-13.431-2.587-18.415-30.562-53.347l17.237-21.523c9.853,12.538,27.335,18.858,41.894,13.057
			c13.002-5.177,23.057-20.547,32.416-17.393c4.727,1.589,7.8,8.81,10.94,15.079c26.404,52.797,81.402,34.121,87.915-16.336
			l43.101,53.82C387.181,309.219,379.567,325.112,365.775,325.112z"/>
	</g>
</g>
<g>
</g>
<g>
</g>
<g>
</g>
<g>
</g>
<g>
</g>
<g>
</g>
<g>
</g>
<g>
</g>
<g>
</g>
<g>
</g>
<g>
</g>
<g>
</g>
<g>
</g>
<g>
</g>
<g>
</g>
</svg>
